<?xml version="1.0" encoding="utf-8"?>
<!-- Generator: Adobe Illustrator 26.0.0, SVG Export Plug-In . SVG Version: 6.00 Build 0)  -->
<svg version="1.1" id="Camada_1" xmlns="http://www.w3.org/2000/svg" xmlns:xlink="http://www.w3.org/1999/xlink" x="0px" y="0px"
	 viewBox="0 0 236.4 241.4" style="enable-background:new 0 0 236.4 241.4;" xml:space="preserve">
<style type="text/css">
	.st0{fill:#525254;} 
</style>
<g>
	<g>
		<path class="st0" d="M189.5,65c0,33.3,0,66.6,0,99.8c-0.4,0.5-1.1,1-1.3,1.6c-4.3,10.7-12.2,17.5-22.8,21.6c-33,0-66,0-98.9,0
			c-7.8-4.1-15.3-8.6-19.7-16.7c-1.2-2.2-2.3-4.3-3.5-6.5c0-33.3,0-66.6,0-99.8c4.8-9.7,11.5-17.5,21.8-21.7
			c0.6-0.2,0.9-0.9,1.4-1.4c33.3,0,66.6,0,99.8,0c3.7,2.3,8,4,10.8,7C181.8,53.8,185.4,59.6,189.5,65z M116.2,168.8
			C116.2,168.8,116.2,168.8,116.2,168.8c12.2,0,24.3,0,36.5,0c12.3,0,17.5-4.3,17.7-16.4c0.4-24.8,0.2-49.6,0-74.4
			c-0.1-12.5-8-17.1-16.1-17c-25.1,0.1-50.2-0.1-75.3,0.1c-11.8,0.1-16.4,5.3-16.4,17.2c0,24.8,0,49.6,0,74.4
			c0,10.7,5.4,16,16.1,16.1C91.3,168.8,103.7,168.8,116.2,168.8z"/>
		<path class="st0" d="M106.9,114.7c0-11.1,0-22.2,0-33.4c0-5.4,4.1-9.8,9.2-9.9c5.4-0.1,10,4.2,10,9.7c0,22.8,0,45.7,0,68.5
			c0,4.7-4.4,8.7-9.3,8.8c-5.6,0.1-9.7-3.3-9.8-8.6C106.9,138.1,106.9,126.4,106.9,114.7C106.9,114.7,106.9,114.7,106.9,114.7z"/>
		<path class="st0" d="M92.9,124.5c0,8.2,0,16.3,0,24.5c0,5.1-3.4,8.6-8.8,9.3c-4.9,0.6-9.4-2.6-10.5-7.4c-0.2-1-0.5-2-0.5-3.1
			c0-15.9-0.1-31.8,0-47.7c0-4.6,3.2-9.1,6.8-10c4.8-1.2,9,0.2,11.5,4.4c0.9,1.5,1.4,3.6,1.4,5.4C93,108.2,92.9,116.3,92.9,124.5
			C92.9,124.5,92.9,124.5,92.9,124.5z"/>
		<path class="st0" d="M160,141.5c0,3.1,0.1,5.1,0,7.2c-0.4,5.8-4.9,10-10.4,9.8c-6.3-0.2-9.1-3.4-9.1-10.1c0-4.4,0.1-8.9,0-13.3
			c-0.1-4,2.2-6.4,5.6-7.7c3.2-1.3,6.4-1.2,9.6,1.1C160.7,132.1,160.2,137.2,160,141.5z"/>
	</g>
</g>
</svg>
